<mxfile host="app.diagrams.net" agent="Mozilla/5.0 (Windows NT 10.0; Win64; x64) AppleWebKit/537.36 (KHTML, like Gecko) Chrome/131.0.0.0 Safari/537.36" version="25.0.1">
  <diagram name="Trang-1" id="NARcMarEOgFNYPmMU8b2">
    <mxGraphModel dx="1008" dy="592" grid="1" gridSize="10" guides="1" tooltips="1" connect="1" arrows="1" fold="1" page="1" pageScale="1" pageWidth="827" pageHeight="1169" math="0" shadow="0">
      <root>
        <mxCell id="0" />
        <mxCell id="1" parent="0" />
        <mxCell id="jHGfgjkdyc1WY4H1Im85-3" value="" style="edgeStyle=orthogonalEdgeStyle;rounded=0;orthogonalLoop=1;jettySize=auto;html=1;" edge="1" parent="1" source="difDGtfHl9ZgANOH0KT_-1" target="jHGfgjkdyc1WY4H1Im85-2">
          <mxGeometry relative="1" as="geometry" />
        </mxCell>
        <mxCell id="difDGtfHl9ZgANOH0KT_-1" value="&lt;font style=&quot;font-size: 18px;&quot;&gt;Start&amp;nbsp;&lt;/font&gt;" style="ellipse;whiteSpace=wrap;html=1;" parent="1" vertex="1">
          <mxGeometry x="330" y="70" width="120" height="80" as="geometry" />
        </mxCell>
        <mxCell id="jHGfgjkdyc1WY4H1Im85-6" value="" style="edgeStyle=orthogonalEdgeStyle;rounded=0;orthogonalLoop=1;jettySize=auto;html=1;" edge="1" parent="1" source="jHGfgjkdyc1WY4H1Im85-2" target="jHGfgjkdyc1WY4H1Im85-5">
          <mxGeometry relative="1" as="geometry" />
        </mxCell>
        <mxCell id="jHGfgjkdyc1WY4H1Im85-2" value="Nhập số nguyên N" style="whiteSpace=wrap;html=1;" vertex="1" parent="1">
          <mxGeometry x="330" y="240" width="120" height="60" as="geometry" />
        </mxCell>
        <mxCell id="jHGfgjkdyc1WY4H1Im85-8" value="" style="edgeStyle=orthogonalEdgeStyle;rounded=0;orthogonalLoop=1;jettySize=auto;html=1;" edge="1" parent="1" source="jHGfgjkdyc1WY4H1Im85-5" target="jHGfgjkdyc1WY4H1Im85-7">
          <mxGeometry relative="1" as="geometry" />
        </mxCell>
        <mxCell id="jHGfgjkdyc1WY4H1Im85-9" value="False" style="edgeLabel;html=1;align=center;verticalAlign=middle;resizable=0;points=[];" vertex="1" connectable="0" parent="jHGfgjkdyc1WY4H1Im85-8">
          <mxGeometry x="-0.0167" y="1" relative="1" as="geometry">
            <mxPoint as="offset" />
          </mxGeometry>
        </mxCell>
        <mxCell id="jHGfgjkdyc1WY4H1Im85-12" value="" style="edgeStyle=orthogonalEdgeStyle;rounded=0;orthogonalLoop=1;jettySize=auto;html=1;" edge="1" parent="1" source="jHGfgjkdyc1WY4H1Im85-5" target="jHGfgjkdyc1WY4H1Im85-11">
          <mxGeometry relative="1" as="geometry" />
        </mxCell>
        <mxCell id="jHGfgjkdyc1WY4H1Im85-13" value="True" style="edgeLabel;html=1;align=center;verticalAlign=middle;resizable=0;points=[];" vertex="1" connectable="0" parent="jHGfgjkdyc1WY4H1Im85-12">
          <mxGeometry x="0.037" relative="1" as="geometry">
            <mxPoint as="offset" />
          </mxGeometry>
        </mxCell>
        <mxCell id="jHGfgjkdyc1WY4H1Im85-5" value="N % 2 == 0 ?" style="rhombus;whiteSpace=wrap;html=1;" vertex="1" parent="1">
          <mxGeometry x="290" y="360" width="200" height="80" as="geometry" />
        </mxCell>
        <mxCell id="jHGfgjkdyc1WY4H1Im85-7" value="N là số lẻ" style="whiteSpace=wrap;html=1;" vertex="1" parent="1">
          <mxGeometry x="50" y="370" width="120" height="60" as="geometry" />
        </mxCell>
        <mxCell id="jHGfgjkdyc1WY4H1Im85-16" style="edgeStyle=orthogonalEdgeStyle;rounded=0;orthogonalLoop=1;jettySize=auto;html=1;" edge="1" parent="1" source="jHGfgjkdyc1WY4H1Im85-11" target="jHGfgjkdyc1WY4H1Im85-15">
          <mxGeometry relative="1" as="geometry" />
        </mxCell>
        <mxCell id="jHGfgjkdyc1WY4H1Im85-11" value="N là số chẵn" style="whiteSpace=wrap;html=1;" vertex="1" parent="1">
          <mxGeometry x="330" y="530" width="120" height="60" as="geometry" />
        </mxCell>
        <mxCell id="jHGfgjkdyc1WY4H1Im85-15" value="End" style="ellipse;whiteSpace=wrap;html=1;" vertex="1" parent="1">
          <mxGeometry x="330" y="700" width="120" height="80" as="geometry" />
        </mxCell>
        <mxCell id="jHGfgjkdyc1WY4H1Im85-17" style="edgeStyle=orthogonalEdgeStyle;rounded=0;orthogonalLoop=1;jettySize=auto;html=1;entryX=0;entryY=0.375;entryDx=0;entryDy=0;entryPerimeter=0;" edge="1" parent="1" source="jHGfgjkdyc1WY4H1Im85-7" target="jHGfgjkdyc1WY4H1Im85-15">
          <mxGeometry relative="1" as="geometry">
            <Array as="points">
              <mxPoint x="110" y="730" />
            </Array>
          </mxGeometry>
        </mxCell>
      </root>
    </mxGraphModel>
  </diagram>
</mxfile>
